<svg width="149" height="33" viewBox="0 0 149 33" fill="none" xmlns="http://www.w3.org/2000/svg">
<path d="M78.3889 15.9324C78.3889 19.212 76.8821 20.5635 73.2041 20.5635C70.1848 20.5635 69.526 19.5965 69.526 16.8003C69.526 13.6139 71.0327 13.1304 78.3889 12.8391V15.9324ZM82.7258 7.33996C82.7258 1.84081 80.6519 0.00582432 74.5218 0.00582432C71.8806 0.00582432 69.0505 0.390301 65.6588 1.06604L66.037 4.54378C69.0562 4.06028 71.789 3.76901 73.5822 3.76901C77.3519 3.76901 78.3889 4.63699 78.3889 7.14772V9.46621C66.6958 9.94972 65 11.8779 65 17.4761C65 21.8218 66.9823 24.2335 71.789 24.2335C75.278 24.2335 77.6327 23.2665 78.767 21.1461H79.0477L79.7066 23.75H83.1956L82.7258 17.9596V7.33996Z" fill="white"/>
<path d="M118.464 3.6758H118.183L117.713 0.489331H114.224L114.694 5.31856V23.7558H119.031V8.69727C119.031 4.54961 119.976 4.0661 126.198 4.25834L126.668 0.302919C125.912 0.203888 125.442 0.203886 124.875 0.203886C121.856 0.203886 119.69 0.97866 118.464 3.68163" fill="white"/>
<path d="M98.1887 11.9769C94.8887 11.9769 93.7543 10.8177 93.7543 7.53802C93.7543 4.25834 94.8887 3.29133 98.1887 3.29133C101.489 3.29133 102.434 4.25834 102.434 7.53802C102.434 10.8177 101.397 11.9769 98.1887 11.9769ZM95.1694 23.1733H101.489C104.13 23.1733 104.789 23.6568 104.789 25.684C104.789 28.387 103.184 28.8705 98.1887 28.8705C94.2298 28.8705 93.1929 28.2938 93.1929 26.0685C93.1929 24.752 93.3762 24.0587 93.7371 23.0335C94.1783 23.1209 94.6538 23.1675 95.1694 23.1675M98.1887 0C91.8695 0 89.3257 2.21946 89.3257 7.53219C89.3257 10.707 90.1736 12.7867 92.1043 13.9809C90.7809 15.6877 90.1736 17.3596 90.1736 18.8276C90.1736 19.9693 90.5288 20.9713 91.2278 21.7228C90.0591 23.5345 89.4231 25.4627 89.4231 27.1287C89.4231 30.5074 91.4971 32.6337 97.06 32.6337C105.545 32.6337 109.131 30.5074 109.131 25.2005C109.131 20.7616 107.338 19.3111 102.062 19.3111H96.1204C94.6137 19.3111 94.0465 18.4431 94.0465 17.3829C94.0465 16.6256 94.3387 15.81 94.8314 14.977C95.8053 15.1692 96.9225 15.2566 98.2001 15.2566C104.422 15.2566 106.874 13.0372 106.874 7.53219C106.874 5.83119 106.622 4.45058 106.072 3.35541L110.077 3.09327L110.266 0.489331H102.359C101.219 0.163111 99.8386 0.00582432 98.1944 0.00582432" fill="white"/>
<path d="M139.301 20.5694C134.964 20.5694 134.219 18.9266 134.219 12.076C134.219 5.22535 134.958 3.6758 139.301 3.6758C143.643 3.6758 144.474 5.31855 144.474 12.076C144.474 18.8334 143.735 20.5694 139.301 20.5694ZM139.301 0.00582432C131.853 0.00582432 129.693 3.00006 129.693 12.0702C129.693 21.1402 131.847 24.2335 139.301 24.2335C146.754 24.2335 149 21.2393 149 12.0702C149 2.90103 146.846 0.00582432 139.301 0.00582432Z" fill="white"/>
<path d="M20.6907 0C20.6907 0 19.9539 0.308905 18.9455 1.59053L13.3607 8.70849V12.9477C13.3607 14.0585 13.7744 14.5777 13.7744 14.5777H6.86459C6.86459 14.5777 7.29121 14.0585 7.29121 12.9543V8.70849L1.75816 1.64968C0.756269 0.368057 0 0 0 0H7.01326C7.01326 0 7.21364 0.716397 7.95052 1.86658L10.2904 5.52743H10.368L12.7273 1.86658C13.4642 0.722969 13.6645 0 13.6645 0H20.6907Z" fill="white"/>
<path d="M31.5047 6.77619H29.5785V2.71442H31.5306C32.9332 2.71442 34.0515 3.27965 34.0515 4.71902C34.0515 6.15838 32.9139 6.76962 31.5047 6.76962M34.5686 0H23.063C23.063 0 23.496 0.519223 23.496 1.62339V12.974C23.496 14.0848 23.063 14.5843 23.063 14.5843H29.9793C29.9793 14.5843 29.5656 14.065 29.5656 12.9543V9.42489H34.5686C37.7423 9.42489 40.1404 7.75549 40.1404 4.72559C40.1404 1.69569 37.8264 0 34.5686 0Z" fill="white"/>
<path d="M58 3.41767C58 3.41767 57.3665 3.01018 56.2806 3.01018H49.4031V6.5133H54.9297C56.0027 6.5133 56.7719 6.26354 56.7719 6.26354V9.74037C56.7719 9.74037 55.9833 9.43146 54.8974 9.43146H49.3966V12.9609C49.3966 14.0585 49.7845 14.558 49.7845 14.558H42.894C42.894 14.558 43.3271 14.0585 43.3271 12.9609V1.61682C43.3336 0.506079 42.894 0 42.894 0H58V3.41767Z" fill="white"/>
</svg>
